<svg id="Layer_1" data-name="Layer 1" xmlns="http://www.w3.org/2000/svg" viewBox="0 0 256 248.98"><defs><style>.cls-1{fill:#fff;}</style></defs><path class="cls-1" d="M39.83,232.2H12.75l-7,15.63H0L23.34,196.4h6.19l23.34,51.43H46.68ZM26.36,201.73,14.91,227.3H37.67Z"/><path class="cls-1" d="M55.32,196h5.33V228.6l22.83-18.23h7.93L73,224.57l19.74,23.26H85.72L69.08,228l-8.43,6.41v13.4H55.32Z"/><path class="cls-1" d="M130.38,235.87C128.22,242.5,122.6,249,110.21,249c-15.35,0-20.39-10.73-20.39-19.88,0-10.44,6.41-19.88,20.39-19.88,9.65,0,21.1,4.18,21.1,21.18H95.15c0,7.78,5.55,14.12,15.06,14.12,8.93,0,13-3,14.84-8.65Zm-4.4-9.5c-1.51-9.22-8.28-12.68-15.41-12.68-6.85,0-14.19,3.53-15.42,12.68Z"/><path class="cls-1" d="M136.57,210.37h5.33V219h.15c1.94-4.47,5.47-9.73,14.33-9.73a16.06,16.06,0,0,1,3.17.29V215a29,29,0,0,0-4.9-.43c-5.76,0-12.75,3.53-12.75,14.19v19.09h-5.33Z"/><path class="cls-1" d="M162.65,196.4h29.24c10.09,0,14.34,5.69,14.34,13a10.83,10.83,0,0,1-8.86,11v.14c6.77,1,10.87,6,10.87,12.61,0,10.73-9.07,14.69-17,14.69H162.65ZM168,218.73h21.1c7.21,0,11.82-2.31,11.82-9.15,0-6.27-4.18-8.28-10-8.28H168Zm0,24.2h22.4c6.91,0,12.1-2.73,12.1-9.79,0-7.42-4.61-9.51-10.8-9.51H168Z"/><path class="cls-1" d="M212.78,196.4h27.73c7.93,0,15.49,4,15.49,14.84,0,9.72-6.41,15-17.86,15h-20v21.61h-5.33Zm5.33,24.92h20.6c8.93,0,11.53-4.1,11.53-10.08,0-7.71-4.32-9.94-10.45-9.94H218.11Z"/><path class="cls-1" d="M203.42,46.92c-10.15-1.31-37.45-2.68-71.69,12.74l-.36.16-.36-.16A156.62,156.62,0,0,0,91.23,48.29c-1.43-.22-2.66-.42-3.43-.58-5.13-1.1-8.83-3.84-9.52-7.39-1.52-7.74,3-14.79,18.33-19.46,5.94-1.81,13-3.92,14.92-8.2a5.53,5.53,0,0,0-.26-4.82C107.87.76,99.23,0,95.67,0a20.15,20.15,0,0,0-3.81.32c-4.78,1-8.75,4.38-9.92,6.34a4.25,4.25,0,0,0,.16,5.21c.67,1.07.89,1.61,0,2.66-12.31,14.86-16.46,27.05-21.67,42-2,5.67.11,7.52,1.56,8.09s2,1.17,1.32,3.29A17,17,0,0,1,61,72.59c-1.31,2-2.17,3.31-.75,6.9,2,5,8.61,7.3,22.22,7.77,9.81.35,26.44-1.28,33.16-2.23l.91-.12.1.9c.71,6.52,0,9-.57,9.82s-1.13,1-3.09,1.5l-1.28.33c-22.87,6.5-28,9.62-29.88,13.41a7.2,7.2,0,0,0-.06,6l0,.06.51,1.66-.88.24c-2.21.6-4.3,1.22-6.21,1.82a91.66,91.66,0,0,1-10.3,2.71l-.5.1-.34-.38c-4-6.17-10.89-15-10.89-15-3-4.18-7.53-2.82-8.07-.13-.35,1.69-4.27,29.29-4.27,29.29a8.26,8.26,0,0,0,5.72,9.55l3.29.87.19.31c8.61,14.67,19.35,27.28,36,32.52,10.54,3.31,24.8,4.55,31.15,4,7.55-.6,14.45-2.4,18.46-4.81,1.74-1,2.79-2.14,3-3.09.91-4.9-7.89-13.26-24.75-20.21l-4.39-1.8,4.74.1c5.77.14,11.21.23,13.86.24h.18c6.7,0,11.94-2.1,14.37-5.78a8.68,8.68,0,0,0,.56-8.49,10.85,10.85,0,0,1-1-2.95v-.36l.23-.27c1.19-1.36,7.11-2.92,11.87-4,6.12-1.38,13-5.22,13.59-10.4l.06-.46.41-.21c.83-.45,12.18-7.07,15-8.65,4.06-2.28,5.57-3,7.74-1.9,3.37,1.73,6.48,2.1,9.25,1.11a9.9,9.9,0,0,0,5.55-5.35c3.13-7.2,9.19-47.77,9.33-48.7C216.28,49.55,207.32,47.42,203.42,46.92ZM90.51,13.15c3.31-2.28.3-5.28-2.35-5,2.72-2.76,8.93-5.17,14.42-1.2,5,3.65-1.06,6.59-5.37,8-4.9,1.65-7.25,1.55-15.65,7.51C86.16,16,86.38,16,90.51,13.15Zm-4.8,68.1c-1.45,0-2.92,0-4.42,0a32.19,32.19,0,0,1-10.05-1.12c-2.26-.71-3.77-1.71-4.39-2.9l-.24-.45.28-.44A24.14,24.14,0,0,0,70,70c1.23-4,.49-7.43-2.1-9.8l-.69-.86.2-.56,4.85-13.18,1.1-3a13.74,13.74,0,0,0,.85,3.59c1.56,4.81,7,7,16.87,8.68s24.84,3.81,37.33,10c7.17,3.57,7.45,6.28,7.24,7.28-.37,1.74-2.18,3.07-5.88,4.32S110,81.25,85.71,81.25ZM50.35,114.13c1.43-1.52,8.64,10.52,8.64,10.52s-9.6,1-9.88-2.91C49.53,117.27,49.83,114.68,50.35,114.13Zm76.15,63.44-.08,0-.73.17a61.85,61.85,0,0,1-14.36,1.81H111c-8.56,0-21.2-3-28.76-6.57-14.86-7.06-25.53-24-25.53-24s15.18,4.2,39.92,5.49h.17l.16.07c2.5,1.13,4.27,1.85,6.49,2.74C138.2,171.28,131.84,176,126.5,177.57Zm35.79-55.27c-.41,1.23-3.53,4.06-9.19,5.33-10.39,2.33-14.24,4.07-15.81,7.15h0c-1.37,2.68-.33,5.6.75,8.11a3.14,3.14,0,0,1-.08,3.17c-1.31,2-5.17,3.15-9.83,3.27-28.09.71-61.38-2.37-80-8a2.63,2.63,0,0,1-1.81-3L47.7,128s3.14,3.61,15.94,1.71c3.37-.5,9.08-2.43,13.28-3.76,18.81-6,50.19-11,70.13-8.9,9.8,1,14.29,3,15.16,4.49l.21.35Zm39.38-25c-.4,1.69-7.45-3.92-8.52-4.86C179.08,80.16,177.93,73.76,180,69.85a6.89,6.89,0,0,1,4.23-3.7c3.65-1,7.84,1.65,11.2,3.76.78.48,1.51.94,2.16,1.31l1,.58c2.21,1.3,4.39,2.42,6.3,2.49.93,0,1.27-.06,1.39-.15Zm7.63-37.15-1,6.49a3.14,3.14,0,0,1-2,2.29,3.43,3.43,0,0,1-3.35-.6c-4.92-3.7-9.57-6-13.83-6.76a13.78,13.78,0,0,0-9.49,1.29A12.31,12.31,0,0,0,174,75.19c1.19,9.63,7.88,15.1,16.34,22,.88.72,2.76,1.84,3.66,2.59.26.22.64.48,1,.75,1.32.91,2.56,1.77,2.68,2.84a1.46,1.46,0,0,1-.39,1.17c-1.07,1.17-2.69.66-4.11.21a20.38,20.38,0,0,0-3-.86c-3.56-.14-6.68,1.63-9.71,3.33s-14.08,8.17-14.81,8.56l-.46.24-.43-.28c-3.32-2.15-8.74-3.59-16.58-4.39-17.6-1.81-41.37,1.51-57.75,5.21l-.79.18-.81-2.52-.2-.55.41-.4c1.17-1.12,6-3.82,25.14-9.27l1-.27h0c3.91-1,6.17-2.46,7.54-4.94,1.66-3,2.06-7.55,1.27-14.35l-.09-.81.8-.16c12.15-2.38,18.83-5.56,19.86-9.43.58-2.18-.64-4.58-3.64-7.14-.89-.76-1.81-1.49-2.8-2.24l-1.1-.82,1.21-.66c8.19-4.46,35.2-13.34,62.1-10.67,2.06.21,5.81.92,7.75,3.38A5.37,5.37,0,0,1,209.3,60.12Z"/></svg>