<?xml version="1.0" encoding="UTF-8"?>
<svg id="Layer_2" data-name="Layer 2" xmlns="http://www.w3.org/2000/svg" viewBox="0 0 141.19 25.15">
  <defs>
    <style>
      .cls-1 {
        fill: #fff;
        stroke-width: 0px;
      }
    </style>
  </defs>
  <g id="logo">
    <g>
      <polygon class="cls-1" points="75.45 3.95 75.46 3.95 76.93 6.04 78.2 6.04 78.2 1.67 76.82 1.67 76.82 3.75 76.81 3.75 75.33 1.67 74.08 1.67 74.08 6.04 75.45 6.04 75.45 3.95"/>
      <path class="cls-1" d="m81.35,6.12c1.39,0,2.34-.83,2.34-2.26s-.91-2.26-2.33-2.26-2.34.83-2.34,2.26.9,2.26,2.33,2.26Zm0-3.39c.58,0,.93.41.93,1.12s-.35,1.12-.93,1.12-.94-.41-.94-1.12.35-1.12.94-1.12Z"/>
      <path class="cls-1" d="m85.88,4.73h.42l.66,1.31h1.6l-.95-1.58c.48-.25.76-.69.76-1.28,0-1-.74-1.52-2.12-1.52h-1.73v4.38h1.37v-1.31Zm0-1.96h.38c.5,0,.71.18.71.49s-.22.51-.72.51h-.37v-1Z"/>
      <path class="cls-1" d="m90.74,5.01c-.56,0-.96-.29-1.15-.45l-.52,1c.31.22.81.56,1.8.56,1.18,0,1.81-.66,1.81-1.42s-.5-1.17-1.24-1.38c-.73-.22-.86-.28-.86-.44,0-.13.12-.2.48-.2.5,0,.86.23,1.02.34l.5-.96c-.23-.15-.65-.46-1.59-.46-1.08,0-1.78.53-1.78,1.37,0,.76.51,1.11,1.23,1.34.71.23.84.3.84.47,0,.15-.17.24-.53.24Z"/>
      <polygon class="cls-1" points="94.82 4.32 95.08 4.32 96.17 6.04 97.91 6.04 96.23 3.72 97.8 1.66 96.21 1.66 95.09 3.32 94.82 3.32 94.82 1.66 93.45 1.66 93.45 6.04 94.82 6.04 94.82 4.32"/>
      <polygon class="cls-1" points="82.09 11.26 80.2 11.26 80.2 10.68 81.86 10.68 81.86 9.65 80.2 9.65 80.2 9.11 82.05 9.11 82.05 8.01 78.83 8.01 78.83 12.38 82.09 12.38 82.09 11.26"/>
      <path class="cls-1" d="m86.83,12.01v-2.23h-1.87v.94h.65v.56c-.1.01-.2.02-.31.02-.69,0-1.16-.36-1.16-1.14s.54-1.1,1.21-1.1c.55,0,.84.2,1.03.34l.52-.97c-.22-.16-.68-.51-1.67-.51-1.29,0-2.47.73-2.47,2.28s1.06,2.24,2.41,2.24c.96,0,1.45-.32,1.67-.45Z"/>
      <polygon class="cls-1" points="87.76 12.38 89.14 12.38 89.14 10.3 89.15 10.3 90.61 12.38 91.88 12.38 91.88 8.01 90.51 8.01 90.51 10.1 90.5 10.1 89.02 8.01 87.76 8.01 87.76 12.38"/>
      <polygon class="cls-1" points="96.13 11.26 94.24 11.26 94.24 10.68 95.89 10.68 95.89 9.65 94.24 9.65 94.24 9.11 96.09 9.11 96.09 8.01 92.87 8.01 92.87 12.38 96.13 12.38 96.13 11.26"/>
      <path class="cls-1" d="m96.82,9.3c0,.76.51,1.11,1.23,1.34.71.23.84.3.84.47,0,.15-.17.24-.53.24-.56,0-.96-.29-1.15-.45l-.52,1c.31.22.81.56,1.8.56,1.18,0,1.81-.66,1.81-1.42s-.5-1.17-1.24-1.38c-.73-.22-.86-.28-.86-.44,0-.13.12-.2.48-.2.5,0,.86.23,1.02.34l.5-.96c-.23-.15-.65-.46-1.59-.46-1.08,0-1.78.53-1.78,1.37Z"/>
      <polygon class="cls-1" points="102.44 10.68 104.1 10.68 104.1 9.65 102.44 9.65 102.44 9.11 104.3 9.11 104.3 8.01 101.07 8.01 101.07 12.38 104.33 12.38 104.33 11.26 102.44 11.26 102.44 10.68"/>
      <polygon class="cls-1" points="107.97 10.1 107.96 10.1 106.48 8.01 105.22 8.01 105.22 12.38 106.6 12.38 106.6 10.3 106.61 10.3 108.08 12.38 109.34 12.38 109.34 8.01 107.97 8.01 107.97 10.1"/>
      <polygon class="cls-1" points="110.01 9.13 111.43 9.13 111.43 12.38 112.81 12.38 112.81 9.13 114.23 9.13 114.23 8.01 110.01 8.01 110.01 9.13"/>
      <path class="cls-1" d="m116.27,11.08h.42l.66,1.31h1.6l-.95-1.58c.48-.25.76-.68.76-1.28,0-1-.74-1.52-2.12-1.52h-1.73v4.38h1.37v-1.31Zm0-1.96h.39c.5,0,.7.18.7.49s-.22.51-.72.51h-.37v-1Z"/>
      <path class="cls-1" d="m121,8.01l-1.68,4.37h1.4l.29-.9h1.34l.29.9h1.46l-1.68-4.37h-1.41Zm.26,2.66l.41-1.31h.01l.4,1.31h-.83Z"/>
      <polygon class="cls-1" points="128.02 11.24 126.12 11.24 126.12 8.01 124.75 8.01 124.75 12.38 128.02 12.38 128.02 11.24"/>
      <polygon class="cls-1" points="77 17.54 77 17.54 74.72 14.53 74.08 14.53 74.08 18.73 74.77 18.73 74.77 15.72 74.78 15.72 77.05 18.73 77.7 18.73 77.7 14.53 77 14.53 77 17.54"/>
      <path class="cls-1" d="m80.87,14.46c-1.26,0-2.11.78-2.11,2.17s.85,2.17,2.11,2.17,2.11-.78,2.11-2.17-.85-2.17-2.11-2.17Zm0,3.72c-.85,0-1.4-.55-1.4-1.56s.55-1.56,1.4-1.56,1.4.57,1.4,1.56-.55,1.56-1.4,1.56Z"/>
      <path class="cls-1" d="m87.28,15.83c0-.86-.62-1.3-1.86-1.3h-1.39v4.2h.69v-1.52h.69c.08,0,.16,0,.23,0l.98,1.53h.83l-1.11-1.65c.61-.21.93-.64.93-1.24Zm-1.87.82h-.68v-1.53h.7c.79,0,1.15.26,1.15.76s-.37.77-1.17.77Z"/>
      <polygon class="cls-1" points="93.01 14.53 92.35 17.69 92.34 17.69 91.23 14.53 90.52 14.53 89.41 17.69 89.4 17.69 88.74 14.53 88.02 14.53 88.99 18.73 89.7 18.73 90.87 15.5 90.88 15.5 92.05 18.73 92.75 18.73 93.72 14.53 93.01 14.53"/>
      <polygon class="cls-1" points="95.37 16.86 97.3 16.86 97.3 16.28 95.37 16.28 95.37 15.12 97.51 15.12 97.51 14.53 94.68 14.53 94.68 18.73 97.57 18.73 97.57 18.13 95.37 18.13 95.37 16.86"/>
      <path class="cls-1" d="m100.63,15.06c.63,0,.95.22,1.14.36l.29-.53c-.21-.15-.6-.43-1.45-.43-1.2,0-2.29.67-2.29,2.18s.97,2.16,2.21,2.16c.9,0,1.35-.29,1.5-.38v-1.99h-1.43v.56h.76v1.08c-.19.06-.44.1-.75.1-.93,0-1.59-.47-1.59-1.57s.75-1.55,1.61-1.55Z"/>
      <rect class="cls-1" x="103.28" y="14.53" width=".69" height="4.2"/>
      <path class="cls-1" d="m106.61,14.53l-1.68,4.2h.72l.46-1.24h1.69l.47,1.24h.74l-1.67-4.2h-.72Zm-.31,2.44l.65-1.75h.01l.65,1.75h-1.31Z"/>
      <polygon class="cls-1" points="112.83 17.54 112.83 17.54 110.55 14.53 109.91 14.53 109.91 18.73 110.6 18.73 110.6 15.72 110.61 15.72 112.88 18.73 113.53 18.73 113.53 14.53 112.83 14.53 112.83 17.54"/>
      <path class="cls-1" d="m76.28,21.41c.61,0,.9.22,1.09.36l.28-.53c-.22-.15-.55-.43-1.4-.43-1.12,0-2.21.67-2.21,2.18s.92,2.16,2.11,2.16c.88,0,1.32-.3,1.49-.43l-.24-.53c-.15.11-.5.33-1.18.33-.86,0-1.46-.49-1.46-1.57s.71-1.55,1.54-1.55Z"/>
      <path class="cls-1" d="m80.29,20.8c-1.26,0-2.11.78-2.11,2.17s.85,2.17,2.11,2.17,2.11-.78,2.11-2.17-.85-2.17-2.11-2.17Zm0,3.72c-.85,0-1.4-.55-1.4-1.56s.55-1.56,1.4-1.56,1.4.57,1.4,1.56-.55,1.56-1.4,1.56Z"/>
      <polygon class="cls-1" points="85.8 24.17 85.79 24.17 84.26 20.88 83.46 20.88 83.46 25.07 84.14 25.07 84.14 22.16 84.15 22.16 85.5 25.07 86.09 25.07 87.43 22.16 87.45 22.16 87.45 25.07 88.13 25.07 88.13 20.88 87.33 20.88 85.8 24.17"/>
      <path class="cls-1" d="m90.77,20.88h-1.38v4.2h.69v-1.41h.68c1.21,0,1.86-.52,1.86-1.42s-.6-1.36-1.86-1.36Zm0,2.22h-.68v-1.63h.68c.8,0,1.15.27,1.15.8s-.36.83-1.15.83Z"/>
      <path class="cls-1" d="m96.56,23.21c0,.92-.38,1.31-1.15,1.31s-1.16-.4-1.16-1.31v-2.34h-.7v2.32c0,1.32.57,1.95,1.82,1.95s1.86-.67,1.86-1.95v-2.32h-.68v2.34Z"/>
      <polygon class="cls-1" points="98.02 21.47 99.6 21.47 99.6 25.07 100.3 25.07 100.3 21.47 101.87 21.47 101.87 20.88 98.02 20.88 98.02 21.47"/>
      <rect class="cls-1" x="102.77" y="20.88" width=".69" height="4.2"/>
      <polygon class="cls-1" points="107.72 23.89 107.71 23.89 105.43 20.88 104.79 20.88 104.79 25.07 105.48 25.07 105.48 22.06 105.49 22.06 107.77 25.07 108.42 25.07 108.42 20.88 107.72 20.88 107.72 23.89"/>
      <path class="cls-1" d="m111.79,21.41c.63,0,.95.22,1.14.36l.29-.53c-.21-.15-.6-.43-1.45-.43-1.2,0-2.29.67-2.29,2.18s.97,2.16,2.21,2.16c.9,0,1.35-.29,1.5-.38v-1.99h-1.43v.56h.76v1.08c-.19.06-.44.1-.75.1-.93,0-1.59-.47-1.59-1.57s.75-1.55,1.61-1.55Z"/>
      <path class="cls-1" d="m118.42,21.41c.61,0,.9.22,1.09.36l.28-.53c-.22-.15-.55-.43-1.4-.43-1.12,0-2.21.67-2.21,2.18s.91,2.16,2.11,2.16c.88,0,1.32-.3,1.49-.43l-.24-.53c-.15.11-.5.33-1.18.33-.86,0-1.46-.49-1.46-1.57s.71-1.55,1.54-1.55Z"/>
      <polygon class="cls-1" points="121.46 23.21 123.39 23.21 123.39 22.63 121.46 22.63 121.46 21.47 123.59 21.47 123.59 20.88 120.76 20.88 120.76 25.07 123.65 25.07 123.65 24.47 121.46 24.47 121.46 23.21"/>
      <polygon class="cls-1" points="127.62 23.89 127.61 23.89 125.33 20.88 124.69 20.88 124.69 25.07 125.38 25.07 125.38 22.06 125.39 22.06 127.67 25.07 128.31 25.07 128.31 20.88 127.62 20.88 127.62 23.89"/>
      <polygon class="cls-1" points="129.15 21.47 130.73 21.47 130.73 25.07 131.42 25.07 131.42 21.47 133 21.47 133 20.88 129.15 20.88 129.15 21.47"/>
      <polygon class="cls-1" points="134.53 23.21 136.46 23.21 136.46 22.63 134.53 22.63 134.53 21.47 136.67 21.47 136.67 20.88 133.83 20.88 133.83 25.07 136.73 25.07 136.73 24.47 134.53 24.47 134.53 23.21"/>
      <path class="cls-1" d="m140.08,23.42c.61-.21.93-.64.93-1.24,0-.86-.62-1.3-1.86-1.3h-1.39v4.2h.69v-1.52h.69c.08,0,.16,0,.23,0l.99,1.53h.83l-1.11-1.65Zm-.94-.42h-.68v-1.53h.7c.79,0,1.15.26,1.15.76s-.37.77-1.17.77Z"/>
      <path class="cls-1" d="m68.01,8.68c0-5.74-4.23-8.68-12.17-8.68h-9.93v25.07h7.87v-7.48h2.4l3.78,7.48h9.18l-5.47-9.05c2.77-1.45,4.34-3.92,4.34-7.34Zm-12.1,3.38h-2.13v-5.7h2.21c2.88,0,4.05,1.02,4.05,2.8s-1.27,2.91-4.12,2.91Z"/>
      <path class="cls-1" d="m33.88,11.95h-.08L25.34,0h-8.46v2c1.54,1.84,2.48,4.21,2.48,6.79s-.93,4.96-2.48,6.79v9.48h9.13v-11.95h.08l8.39,11.95h8.14V0h-8.73v11.95Z"/>
      <path class="cls-1" d="m8.8,14.1h0c-.8.8-1.89,1.29-3.11,1.29h-2.71c1.55,1.37,3.59,2.2,5.82,2.2s4.27-.83,5.82-2.2h-2.71c-1.21,0-2.31-.49-3.11-1.29Z"/>
      <path class="cls-1" d="m8.79,4.75h0c.8.8,1.89,1.29,3.11,1.29h5.24c-.08-.23-.17-.45-.26-.67-.07-.17-.15-.33-.23-.5-.08-.16-.16-.32-.25-.48h-4.5c-1.21,0-2.31-.49-3.11-1.29h0c-.8.8-1.89,1.29-3.11,1.29H1.18c-.3.52-.55,1.07-.74,1.65h5.25c1.21,0,2.31-.49,3.11-1.29Z"/>
      <path class="cls-1" d="m8.79,10.25h0c.8.79,1.89,1.29,3.11,1.29h5.25c.17-.53.3-1.08.37-1.65h-5.62c-1.21,0-2.31-.49-3.11-1.29h0c-.8.79-1.89,1.29-3.11,1.29H.07c.07.57.19,1.12.37,1.65h5.25c1.21,0,2.31-.49,3.11-1.29Z"/>
      <path class="cls-1" d="m8.79,7.5h0c.8.79,1.89,1.29,3.11,1.29h5.68c0-.56-.05-1.11-.16-1.65h-5.53c-1.21,0-2.31-.49-3.11-1.29h0c-.8.79-1.89,1.29-3.11,1.29H.16c-.1.53-.16,1.08-.16,1.65h5.69c1.21,0,2.31-.49,3.11-1.29Z"/>
      <path class="cls-1" d="m8.79,2.01h0c.8.79,1.89,1.29,3.11,1.29h3.75C14.04,1.28,11.57,0,8.79,0S3.55,1.28,1.93,3.29h3.75c1.21,0,2.31-.49,3.11-1.29Z"/>
      <path class="cls-1" d="m11.9,12.64c-1.21,0-2.31-.49-3.11-1.29h0c-.8.79-1.89,1.29-3.11,1.29H.88c.29.59.64,1.14,1.04,1.65h3.76c1.21,0,2.31-.49,3.11-1.29h0c.8.8,1.89,1.29,3.11,1.29h3.76c.38-.48.71-1,.99-1.55.02-.03.04-.06.05-.09h-4.8Z"/>
      <path class="cls-1" d="m77.93,9.52c0-1-.74-1.52-2.12-1.52h-1.73v4.38h1.37v-1.31h.42l.66,1.31h1.6l-.95-1.58c.48-.25.76-.69.76-1.28Zm-2.11.59h-.37v-1h.38c.5,0,.71.18.71.49s-.22.51-.72.51Z"/>
    </g>
  </g>
</svg>